<svg width="24" height="24" viewBox="0 0 24 24" fill="none" xmlns="http://www.w3.org/2000/svg">
<path d="M22.1896 1.81033C21.849 1.47115 21.4445 1.20281 20.9996 1.02083C20.5546 0.83885 20.0781 0.746829 19.5974 0.750083C19.1167 0.753338 18.6414 0.851803 18.199 1.03979C17.7565 1.22778 17.3558 1.50156 17.0197 1.84533L2.782 16.0833C2.61061 16.2547 2.48844 16.469 2.42825 16.7038L0.863722 22.8073C0.812665 23.0065 0.993749 23.1875 1.19293 23.1365L7.29648 21.571C7.5312 21.5108 7.74543 21.3886 7.91678 21.2173L22.1546 6.97925C22.4984 6.64339 22.7723 6.2427 22.9604 5.80035C23.1484 5.35799 23.2469 4.88275 23.2502 4.40209C23.2534 3.92144 23.1614 3.4449 22.9793 3.00004C22.7973 2.55518 22.5289 2.15082 22.1896 1.81033Z" fill="white" stroke="white" stroke-width="0.676194" stroke-linecap="round" stroke-linejoin="round"/>
</svg>
