<svg width="21" height="20" viewBox="0 0 21 20" fill="none" xmlns="http://www.w3.org/2000/svg">
<path fill-rule="evenodd" clip-rule="evenodd" d="M10.126 3.00008C13.8789 3.05417 16.9579 6.48248 18.5 9.43226C18.5 9.43226 17.9573 10.5606 17.4484 11.2829C17.2021 11.6323 16.943 11.9727 16.6707 12.302C16.4766 12.5364 16.2761 12.7646 16.0681 12.9864C14.2094 14.9698 11.54 16.4493 8.72122 15.8749C5.58975 15.2366 3.03539 12.5104 1.5 9.57831C1.5 9.57831 2.04516 8.44888 2.55695 7.72766C2.78623 7.4042 3.02687 7.08939 3.27886 6.78395C3.47194 6.54991 3.67212 6.32165 3.87903 6.09987C5.52125 4.34155 7.62842 2.98782 10.126 3.00008ZM10.1129 4.44252C8.02238 4.43458 6.28398 5.62063 4.90866 7.09299C4.72162 7.29313 4.54132 7.4994 4.3667 7.71071C4.13706 7.9891 3.91772 8.27651 3.70867 8.57113C3.49962 8.86538 3.28525 9.23681 3.11525 9.55234C4.46891 11.8635 6.50083 13.951 9.00054 14.4606C11.3299 14.9355 13.5038 13.6308 15.0399 11.9919C15.2276 11.7917 15.409 11.5851 15.5843 11.3734C15.8328 11.073 16.0691 10.7625 16.2938 10.4434C16.5018 10.1481 16.7158 9.77592 16.8855 9.46003C15.4807 7.07099 13.0772 4.4894 10.1129 4.44252Z" fill="black" fill-opacity="0.6"/>
<path fill-rule="evenodd" clip-rule="evenodd" d="M9.99994 6.61426C11.5705 6.61426 12.8457 7.90992 12.8457 9.50526C12.8457 11.101 11.5705 12.3963 9.99994 12.3963C8.42977 12.3963 7.15454 11.101 7.15454 9.50526C7.15454 7.90992 8.42977 6.61426 9.99994 6.61426Z" fill="black" fill-opacity="0.6"/>
</svg>
