<svg width="21" height="21" viewBox="0 0 21 21" fill="none" xmlns="http://www.w3.org/2000/svg">
<path fill-rule="evenodd" clip-rule="evenodd" d="M3.47712 2.5L2.37793 3.58126L16.5226 17.5L17.6218 16.4184L3.47712 2.5Z" fill="black" fill-opacity="0.6"/>
<path d="M4.70032 5.8662L5.73492 6.88424C4.60236 7.83314 3.70051 9.01428 3.11773 10.0477L3.11595 10.0512C4.73901 12.7215 7.31431 15.2451 10.5647 14.8624C11.442 14.759 12.2605 14.4639 13.0083 14.0416L14.0557 15.0719C12.598 15.9925 10.9271 16.4801 9.1166 16.2391C5.85204 15.8046 3.18268 13.1699 1.5 10.0756C2.29005 8.51137 3.37079 7.01486 4.70032 5.8662ZM7.05345 4.35747C7.9663 3.95723 8.95405 3.72184 10.0089 3.70508C10.0674 3.70473 10.7627 3.73721 11.0779 3.7882C11.2756 3.82033 11.4726 3.86049 11.6667 3.91044C14.7634 4.70427 17.0576 7.28029 18.5 9.93419C17.8949 11.1366 17.1023 12.3101 16.1572 13.3156L15.1538 12.3282C15.8519 11.5879 16.434 10.7636 16.8823 9.96422C16.8823 9.96422 16.4315 9.25106 16.0897 8.80334C15.87 8.51556 15.639 8.23616 15.3962 7.9669C15.2046 7.75456 14.4603 7.03337 14.2832 6.8832C13.0949 5.87772 11.6997 5.08878 10.0263 5.10205C9.37818 5.11218 8.75494 5.23791 8.16328 5.44955L7.05345 4.35747Z" fill="black" fill-opacity="0.6"/>
<path fill-rule="evenodd" clip-rule="evenodd" d="M7.51632 8.63802L8.31499 9.4236L11.3892 12.4486C10.9782 12.6756 10.504 12.8048 9.9997 12.8048C8.42917 12.8048 7.1543 11.5504 7.1543 10.005C7.1543 9.50869 7.28597 9.04245 7.51632 8.63802ZM9.94717 7.20578C9.96456 7.20543 9.98231 7.20508 9.9997 7.20508C11.5702 7.20508 12.8451 8.45991 12.8451 10.005C12.8451 10.0224 12.8451 10.0395 12.8447 10.0567L9.94717 7.20578Z" fill="black" fill-opacity="0.6"/>
</svg>
