<svg width="68" height="43" viewBox="0 0 68 43" fill="none" xmlns="http://www.w3.org/2000/svg">
<path d="M14.3274 24V12.3636H18.6911C19.585 12.3636 20.335 12.5303 20.9411 12.8636C21.5509 13.197 22.0111 13.6553 22.3217 14.2386C22.6361 14.8182 22.7933 15.4773 22.7933 16.2159C22.7933 16.9621 22.6361 17.625 22.3217 18.2045C22.0073 18.7841 21.5433 19.2405 20.9297 19.5739C20.3161 19.9034 19.5604 20.0682 18.6626 20.0682H15.7706V18.3352H18.3786C18.9013 18.3352 19.3293 18.2443 19.6626 18.0625C19.996 17.8807 20.2422 17.6307 20.4013 17.3125C20.5642 16.9943 20.6456 16.6288 20.6456 16.2159C20.6456 15.803 20.5642 15.4394 20.4013 15.125C20.2422 14.8106 19.9941 14.5663 19.657 14.392C19.3236 14.214 18.8937 14.125 18.3672 14.125H16.4354V24H14.3274ZM24.6243 24V12.3636H28.9879C29.8819 12.3636 30.6319 12.5189 31.2379 12.8295C31.8478 13.1402 32.308 13.5758 32.6186 14.1364C32.933 14.6932 33.0902 15.3428 33.0902 16.0852C33.0902 16.8314 32.9311 17.4792 32.6129 18.0284C32.2985 18.5739 31.8345 18.9962 31.2209 19.2955C30.6072 19.5909 29.8535 19.7386 28.9595 19.7386H25.8516V17.9886H28.6754C29.1982 17.9886 29.6262 17.9167 29.9595 17.7727C30.2929 17.625 30.5391 17.411 30.6982 17.1307C30.861 16.8466 30.9425 16.4981 30.9425 16.0852C30.9425 15.6723 30.861 15.3201 30.6982 15.0284C30.5353 14.733 30.2872 14.5095 29.9538 14.358C29.6205 14.2027 29.1906 14.125 28.6641 14.125H26.7322V24H24.6243ZM30.6357 18.7273L33.5163 24H31.1641L28.3345 18.7273H30.6357ZM40.4936 24H38.2436L42.3402 12.3636H44.9425L49.0447 24H46.7947L43.6868 14.75H43.5959L40.4936 24ZM40.5675 19.4375H46.7038V21.1307H40.5675V19.4375ZM52.6854 12.3636V24H50.5774V12.3636H52.6854Z" fill="white"/>
<g filter="url(#filter0_d_10_7596)">
<path fill-rule="evenodd" clip-rule="evenodd" d="M4 15.3417C4 7.54141 11.9009 1.21802 21.6471 1.21802H46.3529C56.0991 1.21802 64 7.54143 64 15.3417V21.0943C64 28.8946 56.0991 35.218 46.3529 35.218H21.6471C11.9009 35.218 4 28.8946 4 21.0943V15.3417ZM21.6471 4.04276H46.3529C54.1499 4.04276 60.4706 9.10149 60.4706 15.3417V21.0943C60.4706 27.3346 54.1499 32.3933 46.3529 32.3933H21.6471C13.8501 32.3933 7.52941 27.3345 7.52941 21.0943V15.3417C7.52941 9.10148 13.8501 4.04276 21.6471 4.04276Z" fill="white"/>
</g>
<defs>
<filter id="filter0_d_10_7596" x="0" y="0.218018" width="68" height="42" filterUnits="userSpaceOnUse" color-interpolation-filters="sRGB">
<feFlood flood-opacity="0" result="BackgroundImageFix"/>
<feColorMatrix in="SourceAlpha" type="matrix" values="0 0 0 0 0 0 0 0 0 0 0 0 0 0 0 0 0 0 127 0" result="hardAlpha"/>
<feOffset dy="3"/>
<feGaussianBlur stdDeviation="2"/>
<feComposite in2="hardAlpha" operator="out"/>
<feColorMatrix type="matrix" values="0 0 0 0 0.141138 0 0 0 0 0.14044 0 0 0 0 0.149038 0 0 0 0.12 0"/>
<feBlend mode="normal" in2="BackgroundImageFix" result="effect1_dropShadow_10_7596"/>
<feBlend mode="normal" in="SourceGraphic" in2="effect1_dropShadow_10_7596" result="shape"/>
</filter>
</defs>
</svg>
