<svg width="19" height="19" viewBox="0 0 19 19" fill="none" xmlns="http://www.w3.org/2000/svg">
<path d="M9.49878 0.26709L11.99 6.9126L18.6355 9.40479L18.7605 9.45166L18.6355 9.49854L11.99 11.9897L9.49878 18.6353L9.4519 18.7603L9.40503 18.6353L6.91284 11.9897L0.267334 9.49854L0.142334 9.45166L0.267334 9.40479L6.91284 6.9126L9.40503 0.26709L9.4519 0.14209L9.49878 0.26709ZM8.28979 8.26025L8.28198 8.28174L8.2605 8.28955L5.17651 9.45068L8.2605 10.6128L8.28198 10.6206L8.28979 10.6421L9.45093 13.7251L10.613 10.6421L10.6208 10.6206L10.6423 10.6128L13.7253 9.45068L10.6423 8.28955L10.6208 8.28174L10.613 8.26025L9.45093 5.17627L8.28979 8.26025Z" fill="url(#paint0_linear_375_11553)" stroke="#7D7D7D" stroke-width="0.1"/>
<defs>
<linearGradient id="paint0_linear_375_11553" x1="0.284912" y1="0.284668" x2="20.4477" y2="16.3172" gradientUnits="userSpaceOnUse">
<stop offset="0.198551" stop-color="#2D1140"/>
<stop offset="0.683389" stop-color="#9F2EFD"/>
</linearGradient>
</defs>
</svg>
