<svg width="30" height="30" viewBox="0 0 30 30" fill="none" xmlns="http://www.w3.org/2000/svg">
<path d="M15.0469 1.23242L18.7881 11.2109L28.7676 14.9531L28.8926 15L28.7676 15.0469L18.7881 18.7881L15.0469 28.7676L15 28.8926L14.9531 28.7676L11.2109 18.7881L1.23242 15.0469L1.10742 15L1.23242 14.9531L11.2109 11.2109L14.9531 1.23242L15 1.10742L15.0469 1.23242ZM13.2344 13.2051L13.2266 13.2266L13.2051 13.2344L8.5166 15L13.2051 16.7656L13.2266 16.7734L13.2344 16.7949L15 21.4824L16.7656 16.7949L16.7734 16.7734L16.7949 16.7656L21.4824 15L16.7949 13.2344L16.7734 13.2266L16.7656 13.2051L15 8.5166L13.2344 13.2051Z" fill="url(#paint0_linear_274_14036)" stroke="#7D7D7D" stroke-width="0.1"/>
<defs>
<linearGradient id="paint0_linear_274_14036" x1="1.25" y1="1.25" x2="31.4942" y2="25.2989" gradientUnits="userSpaceOnUse">
<stop offset="0.198551" stop-color="#2D1140"/>
<stop offset="0.683389" stop-color="#9F2EFD"/>
</linearGradient>
</defs>
</svg>
